<mxfile host="app.diagrams.net" modified="2023-10-16T09:32:58.878Z" agent="Mozilla/5.0 (Macintosh; Intel Mac OS X 10_15_7) AppleWebKit/537.36 (KHTML, like Gecko) Chrome/117.0.0.0 Safari/537.36" etag="ttbXbttjQHV8aPn0zfvO" version="21.7.5" type="github">
  <diagram name="第 1 页" id="otSAY9CgEEkEDT3XQxLB">
    <mxGraphModel dx="1006" dy="686" grid="1" gridSize="10" guides="1" tooltips="1" connect="1" arrows="1" fold="1" page="1" pageScale="1" pageWidth="827" pageHeight="1169" math="0" shadow="0">
      <root>
        <mxCell id="0" />
        <mxCell id="1" parent="0" />
        <mxCell id="A11zUQWiEe7H9cIYcWB2-8" style="edgeStyle=orthogonalEdgeStyle;rounded=0;orthogonalLoop=1;jettySize=auto;html=1;entryX=0;entryY=0.441;entryDx=0;entryDy=0;entryPerimeter=0;" edge="1" parent="1" source="A11zUQWiEe7H9cIYcWB2-1" target="A11zUQWiEe7H9cIYcWB2-2">
          <mxGeometry relative="1" as="geometry" />
        </mxCell>
        <mxCell id="A11zUQWiEe7H9cIYcWB2-1" value="job-entry" style="rounded=0;whiteSpace=wrap;html=1;" vertex="1" parent="1">
          <mxGeometry x="120" y="280" width="80" height="60" as="geometry" />
        </mxCell>
        <mxCell id="A11zUQWiEe7H9cIYcWB2-12" style="edgeStyle=orthogonalEdgeStyle;rounded=0;orthogonalLoop=1;jettySize=auto;html=1;entryX=0;entryY=0.5;entryDx=0;entryDy=0;" edge="1" parent="1" source="A11zUQWiEe7H9cIYcWB2-2" target="A11zUQWiEe7H9cIYcWB2-9">
          <mxGeometry relative="1" as="geometry" />
        </mxCell>
        <mxCell id="A11zUQWiEe7H9cIYcWB2-18" value="回传策略判定&lt;br&gt;collection topic" style="edgeLabel;html=1;align=center;verticalAlign=middle;resizable=0;points=[];" vertex="1" connectable="0" parent="A11zUQWiEe7H9cIYcWB2-12">
          <mxGeometry x="-0.1846" relative="1" as="geometry">
            <mxPoint as="offset" />
          </mxGeometry>
        </mxCell>
        <mxCell id="A11zUQWiEe7H9cIYcWB2-2" value="" style="rounded=0;whiteSpace=wrap;html=1;" vertex="1" parent="1">
          <mxGeometry x="240" y="160" width="120" height="340" as="geometry" />
        </mxCell>
        <mxCell id="A11zUQWiEe7H9cIYcWB2-4" value="signup" style="rounded=0;whiteSpace=wrap;html=1;" vertex="1" parent="1">
          <mxGeometry x="260" y="190" width="80" height="60" as="geometry" />
        </mxCell>
        <mxCell id="A11zUQWiEe7H9cIYcWB2-5" value="signin" style="rounded=0;whiteSpace=wrap;html=1;" vertex="1" parent="1">
          <mxGeometry x="260" y="270" width="80" height="60" as="geometry" />
        </mxCell>
        <mxCell id="A11zUQWiEe7H9cIYcWB2-6" value="activation" style="rounded=0;whiteSpace=wrap;html=1;" vertex="1" parent="1">
          <mxGeometry x="260" y="350" width="80" height="60" as="geometry" />
        </mxCell>
        <mxCell id="A11zUQWiEe7H9cIYcWB2-7" value="active" style="rounded=0;whiteSpace=wrap;html=1;" vertex="1" parent="1">
          <mxGeometry x="260" y="430" width="80" height="60" as="geometry" />
        </mxCell>
        <mxCell id="A11zUQWiEe7H9cIYcWB2-10" value="归因层" style="text;html=1;align=center;verticalAlign=middle;resizable=0;points=[];autosize=1;strokeColor=none;fillColor=none;" vertex="1" parent="1">
          <mxGeometry x="270" y="130" width="60" height="30" as="geometry" />
        </mxCell>
        <mxCell id="A11zUQWiEe7H9cIYcWB2-17" value="" style="group" vertex="1" connectable="0" parent="1">
          <mxGeometry x="490" y="130" width="120" height="370" as="geometry" />
        </mxCell>
        <mxCell id="A11zUQWiEe7H9cIYcWB2-9" value="" style="rounded=0;whiteSpace=wrap;html=1;" vertex="1" parent="A11zUQWiEe7H9cIYcWB2-17">
          <mxGeometry y="30" width="120" height="340" as="geometry" />
        </mxCell>
        <mxCell id="A11zUQWiEe7H9cIYcWB2-11" value="回传过滤层" style="text;html=1;align=center;verticalAlign=middle;resizable=0;points=[];autosize=1;strokeColor=none;fillColor=none;" vertex="1" parent="A11zUQWiEe7H9cIYcWB2-17">
          <mxGeometry x="20" width="80" height="30" as="geometry" />
        </mxCell>
        <mxCell id="A11zUQWiEe7H9cIYcWB2-13" value="signup" style="rounded=0;whiteSpace=wrap;html=1;" vertex="1" parent="A11zUQWiEe7H9cIYcWB2-17">
          <mxGeometry x="20" y="60" width="80" height="60" as="geometry" />
        </mxCell>
        <mxCell id="A11zUQWiEe7H9cIYcWB2-14" value="signin" style="rounded=0;whiteSpace=wrap;html=1;" vertex="1" parent="A11zUQWiEe7H9cIYcWB2-17">
          <mxGeometry x="20" y="140" width="80" height="60" as="geometry" />
        </mxCell>
        <mxCell id="A11zUQWiEe7H9cIYcWB2-15" value="activation" style="rounded=0;whiteSpace=wrap;html=1;" vertex="1" parent="A11zUQWiEe7H9cIYcWB2-17">
          <mxGeometry x="20" y="220" width="80" height="60" as="geometry" />
        </mxCell>
        <mxCell id="A11zUQWiEe7H9cIYcWB2-16" value="active" style="rounded=0;whiteSpace=wrap;html=1;" vertex="1" parent="A11zUQWiEe7H9cIYcWB2-17">
          <mxGeometry x="20" y="300" width="80" height="60" as="geometry" />
        </mxCell>
        <mxCell id="A11zUQWiEe7H9cIYcWB2-19" value="回传层" style="rounded=0;whiteSpace=wrap;html=1;" vertex="1" parent="1">
          <mxGeometry x="760" y="300" width="80" height="60" as="geometry" />
        </mxCell>
        <mxCell id="A11zUQWiEe7H9cIYcWB2-20" style="edgeStyle=orthogonalEdgeStyle;rounded=0;orthogonalLoop=1;jettySize=auto;html=1;entryX=0;entryY=0.5;entryDx=0;entryDy=0;" edge="1" parent="1" source="A11zUQWiEe7H9cIYcWB2-9" target="A11zUQWiEe7H9cIYcWB2-19">
          <mxGeometry relative="1" as="geometry" />
        </mxCell>
        <mxCell id="A11zUQWiEe7H9cIYcWB2-21" value="callback topic" style="edgeLabel;html=1;align=center;verticalAlign=middle;resizable=0;points=[];" vertex="1" connectable="0" parent="A11zUQWiEe7H9cIYcWB2-20">
          <mxGeometry x="-0.2333" y="1" relative="1" as="geometry">
            <mxPoint as="offset" />
          </mxGeometry>
        </mxCell>
      </root>
    </mxGraphModel>
  </diagram>
</mxfile>
